<svg width="608" height="202" viewBox="0 0 608 202" fill="none" xmlns="http://www.w3.org/2000/svg">
<path fill-rule="evenodd" clip-rule="evenodd" d="M91.5457 67.2584C92.0192 69.2184 91.2742 71.2024 90.7074 72.8234C90.1226 74.4864 89.2327 76.1444 87.7734 77.3364C85.9047 78.8604 83.199 79.4534 81.0713 80.6444C79.3028 81.6364 77.8351 83.1704 76.2574 84.4054C71.5632 88.0704 67.032 92.2364 63.2681 96.5884C64.2581 96.1334 65.9083 96.3914 67.2492 95.9864C69.0957 95.4264 70.2543 93.4324 72.6939 92.8284C74.9164 92.2774 77.4856 92.4284 79.8138 92.2264C81.9026 92.0454 83.9691 91.3914 86.0996 91.7754C86.7555 93.2104 84.4356 93.9484 83.3773 94.7834C80.4098 97.1234 76.8116 100.376 70.3907 98.5434C69.455 98.2774 68.4468 97.4604 67.2492 97.3404C65.7969 97.1954 62.6637 97.9794 61.5943 98.5434C59.6225 99.5834 58.0852 102.577 56.9837 104.86C55.7458 107.421 55.0286 110.05 54.4702 112.681C53.2657 118.353 53.0777 124.588 51.7479 129.828C48.9406 140.89 41.875 149.374 37.7142 157.954C39.9032 156.76 44.816 156.941 49.2344 156.45C51.9943 156.144 54.3282 154.931 56.3543 155.549C56.2484 157.703 54.3602 159.722 52.3759 160.813C50.8775 161.634 48.5298 162.173 45.6724 161.715C43.2355 161.324 40.5702 159.374 38.1333 159.91C37.3006 160.093 36.0251 161.704 35.6199 162.467C34.8637 163.872 34.6437 165.611 34.1536 167.281C32.8237 171.807 31.5175 177.24 31.6401 182.773C32.6107 181.313 34.3764 180.38 34.9905 178.863C35.5614 177.45 35.2383 176.183 35.6185 175.102C36.1434 173.603 37.302 171.841 38.76 170.74C41.162 168.926 43.9498 167.829 46.299 165.926C46.9326 165.414 47.5745 164.384 49.0213 164.573C49.971 166.536 48.6649 168.591 48.1844 170.439C47.5397 172.932 47.2194 175.295 45.4621 176.907C44.4553 177.833 43.0391 178.328 41.6926 178.863C40.3196 179.409 38.8588 179.619 37.2951 180.216C34.5811 181.254 32.1623 184.218 31.8503 186.685C31.5844 188.758 32.4296 191.528 32.8947 194.355C32.9978 194.972 33.2053 196.655 33.5255 198.115C33.7971 199.359 34.3499 200.957 32.8947 201.123C30.7865 201.364 31.168 197.646 31.0121 196.46C30.9229 195.763 30.696 194.701 30.5901 193.753C30.4787 192.716 30.6876 191.502 30.384 190.895C29.8702 189.876 27.716 189.117 25.9837 188.338C24.2375 187.554 22.217 187.064 20.7507 186.383C16.4478 184.387 15.2377 179.776 12.7869 176.305C12.0308 175.231 10.5756 174.073 11.1118 172.845C12.6644 172.613 13.5974 173.66 14.6724 174.199C18.9474 176.334 24.1971 177.939 24.9366 182.923C25.0814 183.895 24.7513 184.831 25.3557 185.78C26.1717 187.065 28.7423 187.522 29.9635 188.487C29.0848 184.846 30.5623 180.857 29.7574 178.109C29.355 176.737 27.5921 175.573 26.194 174.349C22.1961 170.842 18.0729 167.559 16.349 162.616C14.4691 161.831 12.4848 161.541 10.694 161.112C6.96487 160.219 4.81902 158.234 2.52696 155.998C1.54524 155.04 -0.168936 154.045 0.0134824 152.689C2.93496 152.369 5.37463 153.603 7.55251 154.344C9.87521 155.133 11.9668 156.007 13.8383 157.052C12.7229 154.981 11.5379 152.715 10.2776 150.584C9.878 149.907 9.55633 149.092 9.01882 148.629C7.78367 147.566 5.32589 147.141 3.99605 145.921C2.00198 144.098 2.45734 140.537 1.89894 137.197C1.77362 136.454 1.41156 135.693 1.27092 134.941C1.15116 134.307 0.631758 133.387 1.69006 132.986C3.06307 133.073 3.61033 134.21 4.20354 134.941C4.80231 135.678 5.41362 136.461 6.08899 137.197C7.80177 139.06 10.4085 140.942 10.6968 143.664C10.811 144.724 10.2721 145.956 10.4879 147.124C10.6272 147.869 11.2719 148.439 11.7467 149.23C12.9847 151.293 14.0291 153.746 15.3074 155.697C15.487 154.349 15.9786 153.24 16.7737 151.936C17.3237 151.029 18.0659 149.046 19.4988 149.078C21.1824 149.117 21.7811 152.415 22.2212 153.591C22.923 155.484 24.005 157.096 23.8936 158.705C23.6972 161.539 19.7926 163.005 20.5432 166.225C20.954 167.986 23.7557 169.834 25.151 171.038C27.166 172.777 28.2326 173.801 30.1793 175.55C30.1417 173.587 31.615 171.139 31.6457 169.233C31.6749 166.985 29.7393 164.153 28.7116 162.164C27.528 159.867 26.3263 157.533 25.5701 155.245C23.778 149.824 25.0563 144.315 22.0095 139.453C18.0061 137.956 13.4456 137.924 11.1173 135.241C9.93091 133.873 9.44493 131.875 8.81412 130.127C8.18332 128.379 7.00804 126.576 7.35059 124.712C9.40176 124.609 10.318 125.919 11.3262 126.668C12.4332 127.488 13.4665 128.319 14.8868 128.924C14.7016 127.666 15.2002 126.388 15.3088 125.013C15.4341 123.427 14.866 121.669 15.7279 120.35C17.7401 120.108 18.5101 122.409 19.5002 123.96C21.0919 126.468 23.0246 130.261 20.9665 133.436C22.0165 136.78 25.261 140.13 25.9893 143.965C26.5909 147.127 25.9517 150.313 27.0365 153.591C27.5238 152.65 28.4401 151.604 28.5028 150.433C28.603 148.582 27.5405 146.747 27.8775 144.717C28.2006 142.732 28.9874 140.96 29.341 138.851C29.4413 138.256 28.9052 137.425 29.9691 137.046C31.732 137.211 31.5844 139.561 32.2751 141.408C33.1342 143.714 35.4653 147.096 33.7414 149.38C33.0479 150.296 31.498 150.719 30.1807 151.336C29.3355 153.44 28.0488 155.11 28.5028 157.503C29.0305 160.267 31.8183 163.038 32.4839 165.475C34.3736 160.671 36.1991 156.371 38.7669 151.937C39.9144 149.954 42.1883 148.042 40.8613 145.469C40.3251 144.431 38.8644 143.286 37.7198 142.311C36.3468 141.142 34.3415 140.14 33.9503 138.551C33.4308 136.44 34.0895 133.772 33.9503 131.481C33.85 129.885 32.8321 128.271 33.9503 126.97C35.5823 126.918 35.7675 128.231 36.2535 128.924C38.2392 131.758 41.6633 134.326 41.0701 139.002C40.9476 139.97 40.3196 140.883 40.4421 141.86C40.619 143.245 42.2593 144.188 42.7453 145.32C44.3829 142.727 46.1918 139.33 47.562 136.145C48.3265 134.372 49.382 132.899 48.4003 131.031C47.6637 129.622 45.4496 128.807 43.5836 127.571C41.5812 126.244 38.9438 124.402 38.3478 122.458C37.7741 120.593 37.7546 118.329 37.3006 116.14C37.0778 115.074 36.8272 114.156 36.4623 113.132C36.1685 112.307 35.5001 111.236 36.2535 110.425C37.4259 109.946 38.3422 110.881 38.9758 111.326C41.7928 113.305 46.1723 115.643 46.7265 119.299C47.1206 121.922 45.6362 124.912 46.7265 127.27C47.2348 128.38 48.9267 128.802 49.6563 129.828C50.684 125.517 51.642 119.279 52.1726 114.034C52.3118 112.655 52.3494 110.662 51.9637 109.522C51.5933 108.438 49.9641 106.298 48.6133 106.213C46.4048 106.075 44.5751 106.748 42.7467 106.515C37.9022 105.896 35.9903 101.324 34.7885 97.6414C34.5462 96.9054 33.9294 95.9794 34.9974 95.3854C37.348 95.8674 37.8883 97.7684 39.3949 98.9944C42.0686 101.169 46.1402 101.718 49.4474 103.507C47.6901 100.688 46.5315 97.7184 44.2116 94.7834C41.5269 91.3854 37.8618 89.2494 38.7669 83.9534C39.0037 82.5664 40.4421 81.4704 41.2804 80.1924C41.8137 79.3774 41.8026 77.8964 42.9556 77.7864C44.7937 77.6104 45.7267 81.3524 46.0971 83.0504C46.8964 86.6944 46.6569 89.3584 46.9354 92.9774C47.4172 99.2174 52.3536 102.396 53.4272 107.868C54.8518 104.4 56.1524 101.963 58.6658 98.9944C59.3913 98.1384 60.7198 96.9594 60.7602 96.2864C60.8451 94.9744 58.5656 93.5174 57.8289 92.2254C55.6232 88.3564 58.2996 84.6544 59.5041 81.2454C59.713 80.6504 59.5919 79.6174 60.7602 79.2904C62.5927 79.2034 62.7347 81.2044 63.2736 82.5984C64.0465 84.5954 65.1173 86.4364 64.74 89.0664C64.4628 91.0124 62.8503 92.3734 62.8545 94.0294C64.1607 93.3934 65.0407 91.9534 66.624 90.4194C68.5554 88.5544 71.5953 87.4304 71.0216 84.1024C70.8642 83.1834 69.7599 81.9314 69.5552 80.7924C69.0219 77.7634 70.0997 75.4654 71.2332 72.8214C71.7986 71.4944 72.7107 68.7624 73.7467 68.7594C75.1991 68.7564 75.3871 71.8324 75.6321 73.1204C76.1056 75.6084 76.7559 77.6694 76.0513 79.8894C75.5514 81.4674 73.9402 82.5834 73.5378 84.2524C74.7451 83.6894 75.8034 82.8314 76.8854 81.9954C77.8783 81.2344 79.1997 80.3464 80.0297 79.4384C81.8163 77.4864 82.2897 74.7934 84.0108 72.6714C85.7431 70.5284 88.1146 69.2384 89.8747 67.4054C90.1435 66.9934 91.0026 67.1074 91.5457 67.2584ZM82.7478 78.2374C86.8167 76.9984 88.9765 73.5864 89.2425 70.1164C86.3349 72.2904 84.3395 75.1194 82.7478 78.2374ZM72.0673 82.2994C74.869 80.4004 74.3051 76.4904 73.7425 73.1234C73.6993 72.9564 73.5058 72.8904 73.3234 72.8234C72.2873 75.7134 70.2752 79.0894 72.0673 82.2994ZM45.0499 92.9784C44.8132 88.5834 44.8508 83.9964 43.1631 80.6444C38.6012 83.7724 41.3459 90.6064 45.0499 92.9784ZM60.9649 93.2794C61.242 91.6914 62.6999 90.2474 62.8503 88.4664C63.0216 86.4384 61.8714 84.5964 61.384 82.7504C61.3353 82.6334 61.2072 82.5754 60.9649 82.6004C59.557 85.7804 57.4028 90.6144 60.9649 93.2794ZM69.5511 96.7394C74.7535 99.2284 78.8502 96.3544 81.2815 94.3324C81.6185 94.0534 83.0194 93.5684 82.1226 93.4304C77.0609 93.9074 70.9826 93.6554 69.5511 96.7394ZM48.3975 104.71C45.0583 102.898 40.282 102.116 37.717 99.7474C38.5274 103.38 42.205 106.307 48.3975 104.71ZM40.8585 123.211C41.1982 123.706 41.9488 124.386 42.5337 124.865C43.0015 125.247 44.2256 126.197 44.4191 125.767C44.6308 123.883 45.0555 121.8 44.8383 120.051C44.433 116.786 41.5018 115.14 38.7655 113.283C40.165 116.113 39.0775 120.608 40.8585 123.211ZM18.2358 131.333C18.3068 131.711 19.4264 132.681 19.4974 132.085C20.6992 129.072 18.829 125.913 17.1914 123.963C17.4282 126.672 15.2545 130.062 18.2358 131.333ZM13 134.793C14.7211 136.548 18.1049 136.931 20.9637 137.501C18.5268 133.432 14.2783 130.666 10.0688 127.875C11.3819 130.218 11.1967 132.95 13 134.793ZM37.2978 140.057C37.5513 140.263 38.4188 141.014 38.5539 140.508C40.3056 137.098 37.9885 133.637 35.8315 131.635C35.7591 134.879 35.4514 138.558 37.2978 140.057ZM8.60524 146.676C9.51037 142.231 6.42458 140.113 3.99744 137.65C4.05732 141.716 4.08238 145.81 8.60524 146.676ZM30.5943 149.534C33.8166 148.306 31.473 144.449 30.5943 142.614C29.7045 144.411 29.2241 147.819 30.5943 149.534ZM19.2886 163.07C19.7133 161.36 21.9287 160.326 22.0081 158.558C22.0903 156.719 19.4055 153.03 19.2886 151.489C16.5147 153.958 16.8377 160.536 19.2886 163.07ZM14.8854 160.513C12.8106 157.391 8.24319 156.058 3.78578 154.646C5.98873 157.577 9.52708 160.35 14.8854 160.513ZM40.6524 158.708C43.3775 159.069 45.5429 160.81 48.6106 160.513C51.287 160.254 52.5402 158.615 53.8464 157.055C50.2829 158.205 44.3258 157.638 40.6524 158.708ZM36.8801 178.713C44.3732 178.13 46.5107 172.895 46.7251 167.583C42.588 170.679 36.7603 172.56 36.8801 178.713ZM23.2642 185.482C23.4062 180.217 19.5977 177.787 14.8841 176.005C17.3377 179.37 18.1815 184.607 23.2642 185.482Z" fill="#BF8294"/>
<path fill-rule="evenodd" clip-rule="evenodd" d="M244.243 23.3664C251.95 22.7944 262.919 22.3194 266.654 25.9234C266.686 29.8614 266.951 33.6324 267.076 37.5054C278.082 39.9054 291.445 40.9674 300.798 45.0264C302.008 45.5524 303.88 46.0954 303.729 47.4334C303.373 47.9824 302.451 48.1214 301.213 48.0354C298.009 52.8874 286.649 53.3914 277.546 52.3974C274.544 52.0694 271.297 51.4284 267.704 51.7954C267.704 52.5474 267.704 53.2994 267.704 54.0514C274.495 54.9954 280.778 56.5974 287.393 58.2634C291.456 59.2884 296.623 60.6554 300.587 62.4744C302.77 63.4764 305.795 65.7384 300.587 65.7844C296.543 68.6234 290.51 69.7914 282.783 69.3934C277.341 69.1134 272.685 67.0474 268.122 66.5364C267.97 67.9854 269.931 68.3264 271.056 68.9434C274.611 70.8914 277.236 73.0834 277.128 77.9674C278.369 78.8054 280.31 79.3364 281.948 80.0734C283.372 80.7164 285.432 81.4614 285.298 82.7814C285.261 83.5554 283.863 83.3554 282.782 83.3824C281.506 85.1234 279.38 86.2524 276.29 86.6904C274.932 96.5464 272.988 105.978 266.235 111.961C269.273 112.688 271.944 113.637 274.196 115.12C275.294 115.843 276.317 116.731 276.29 117.677C276.216 120.315 267.838 121.784 264.562 122.49C259.098 123.668 254.167 124.268 249.69 124.897C244.833 125.578 240.394 127.224 235.446 127.905C225.266 129.305 214.225 130.293 205.077 132.418C193.703 135.058 184.957 139.855 174.705 143.397C173.647 143.763 172.642 144.165 171.564 144.45C170.508 144.728 169.255 144.834 168.214 145.202C165.88 146.024 163.822 147.795 161.928 149.263C159.928 150.813 158.245 152.364 156.902 154.076C153.867 157.947 152.526 161.985 150.827 166.56C140.475 167.848 128.515 166.213 120.249 164.305C114.065 162.876 107.779 161.021 102.445 158.288C101.036 157.565 98.2735 156.047 98.0479 155.28C97.768 154.338 98.7929 151.185 99.0951 150.016C103.104 134.453 114.445 125.011 124.231 113.916C126.423 111.43 128.212 108.804 130.301 106.245C134.552 101.043 137.925 95.6874 141.404 90.1524C144.679 84.9394 148.654 78.2814 152.921 74.3594C157.754 69.9174 164.175 66.6464 169.049 61.8754C173.552 57.4654 177.178 51.5814 180.569 46.0814C184.07 40.4124 186.972 34.3054 192.3 30.4394C195.892 27.8314 200.731 25.7404 205.494 23.6704C210.223 21.6144 215.301 19.7744 220.155 17.9554C224.826 16.2054 230.188 14.7204 235.445 12.6904C240.501 10.7404 245.843 8.42538 252.201 8.02738C254.442 7.88738 256.27 8.30638 256.599 8.77938C256.867 9.16738 256.498 9.42838 256.39 10.1334C256.219 11.2494 256.131 13.1324 255.551 14.1944C253.463 18.0284 248.04 21.0514 244.243 23.3664ZM238.379 13.2884C239.152 13.8434 240.383 13.7904 241.313 13.7394C243.601 13.6124 246.209 12.6234 248.433 11.9344C250.778 11.2074 253.215 10.4804 254.503 9.37738C247.855 9.76338 242.745 11.2574 238.379 13.2884ZM146.011 145.5C143.806 145.21 140.381 145.151 140.356 143.845C141.66 143.02 143.634 143.667 144.964 143.845C146.648 144.071 148.342 144.423 149.99 144.597C161.684 145.83 171.666 143.328 179.104 140.236C189.36 135.972 199.247 131.164 212.407 129.556C212.316 128.065 210.21 125.503 211.986 124.593C214.094 125.143 213.027 128.374 214.502 129.256C214.913 129.051 215.698 129.112 216.177 128.956C216.585 128.278 214.331 126.696 216.177 126.248C217.709 126.453 217.475 127.922 218.271 128.656C224.361 127.549 230.287 127.273 236.075 126.399C241.69 125.551 246.603 123.249 252.622 123.09C252.439 122.02 251.112 120.764 251.574 119.33C252.069 117.795 255.205 116.728 258.277 116.021C262.288 115.097 266.621 114.614 270.007 114.667C264.42 112.198 256.459 111.667 248.434 112.261C242.331 112.711 236.807 113.371 232.726 114.818C231.567 115.229 229.915 116.632 228.537 115.569C228.542 114.12 231.068 114.482 231.678 113.464C225.363 112.945 218.626 113.407 211.987 113.163C205.258 112.916 199.694 112.36 193.348 112.711C191.926 112.79 189.203 113.405 188.74 112.109C189.288 111.122 191.259 111.434 192.719 111.357C195.547 111.208 198.831 110.812 201.514 111.207C200.25 110.307 198.811 109.438 197.325 108.349C193.344 105.433 189.245 100.802 188.739 95.7154C188.263 90.9674 189.758 87.2524 190.833 83.8324C191.051 83.1364 190.853 81.9044 192.3 81.8764C193.423 82.4264 192.676 83.3944 192.509 84.1324C191.505 88.5734 189.512 93.1724 191.253 98.1214C192.996 97.0264 194.585 95.8034 196.275 94.6614C197.988 93.5084 199.862 92.5544 201.514 91.3524C203.559 89.8644 205.049 87.9704 207.381 86.6884C212.342 83.9634 219.527 83.7254 225.603 81.4254C225.523 78.0614 225.5 74.7354 227.069 72.5504C223.302 73.4024 219.136 73.7434 215.967 74.9574C214.297 75.5974 213.093 77.2484 211.147 76.6114C211.161 75.3454 212.913 74.7314 214.081 74.2044C215.351 73.6334 216.94 73.0504 218.479 72.7004C221.712 71.9664 225.787 71.8454 228.534 70.7454C230.954 69.7754 232.203 68.0574 234.817 67.4354C235.079 63.2624 235.416 59.1414 235.655 54.9514C231.201 54.9224 229.998 56.6934 227.275 58.2604C221.294 61.7084 213.856 64.1594 209.475 67.8874C208.858 68.4114 208.219 69.6434 206.75 69.0894C206.496 68.0804 207.626 67.1904 208.425 66.5334C213.013 62.7784 219.108 60.8004 224.762 57.8084C226.973 56.6404 229.23 54.7534 231.256 54.1994C232.777 53.7834 234.629 53.8884 235.864 53.4484C236.033 47.7554 236.604 42.3464 236.911 36.7524C230.14 36.2044 226.016 38.1754 222.25 39.9114C217.128 42.2694 212.323 44.4514 206.122 45.9284C201.876 51.5014 202.675 60.9394 200.052 67.4364C199.731 68.2304 199.453 69.6524 197.955 69.6934C196.933 69.1284 197.515 68.0884 197.749 67.4364C198.034 66.6234 198.556 65.8344 198.793 65.0304C200.297 59.8974 200.49 53.7624 202.354 48.9364C203.963 44.7684 208.677 40.4854 212.199 37.3544C213.559 36.1444 214.935 34.8954 216.177 33.8944C219.05 31.5784 222.283 30.0324 226.229 28.6304C233.743 25.9614 242.486 23.3704 248.012 19.3044C250.809 17.2484 253.667 14.8164 254.504 11.4824C252.769 11.8664 250.509 12.9774 247.805 13.7394C245.305 14.4444 241.881 15.3824 239.428 15.0934C238.12 14.9394 237.622 14.1614 236.283 13.8904C222.978 18.7344 207.318 23.2734 196.277 29.8324C192.513 32.0724 189.831 34.8094 187.482 38.4074C180.699 48.8034 175.697 59.6564 165.281 67.1364C161.768 69.6594 158.087 72.0414 155.017 74.8074C149.09 80.1504 145.326 87.7374 140.989 94.5104C136.683 101.223 131.624 107.716 126.533 113.913C119 123.085 109.113 131.021 103.913 142.342C102.784 144.799 101.517 148.307 100.772 151.366C100.472 152.596 99.9779 154.122 100.144 154.676C100.41 155.574 102.749 156.583 104.335 157.382C115.321 162.936 131.492 166.092 149.154 165.505C151.697 157.204 156.145 150.267 164.026 145.801C164.143 145.801 164.266 145.679 164.026 145.65C158.449 146.721 151.207 146.181 146.011 145.5ZM255.554 24.4194C250.001 24.1704 243.288 24.5284 239.845 25.9234C241.32 27.3664 245.13 27.7034 248.434 27.8784C254.195 28.1834 260.764 27.8794 264.351 26.3744C262.751 24.9684 259.058 24.5754 255.554 24.4194ZM237.332 26.2234C231.223 28.8584 224.822 29.9694 219.951 33.2934C215.442 36.3644 212.194 39.6704 208.22 43.8214C211.786 42.7254 214.984 41.6354 218.062 40.2114C221.019 38.8444 223.766 37.0244 227.277 36.1504C230.124 35.4424 233.432 35.7304 237.122 35.2474C236.897 32.1264 237.922 29.1054 237.332 26.2234ZM239.429 27.8784C238.719 41.1084 237.392 54.6954 236.913 67.5874C239.712 69.5044 245.727 69.9724 251.366 69.9934C257.023 70.0154 263.131 69.7084 266.235 67.8884C265.805 54.4604 265.449 40.9794 264.562 27.8784C258.125 30.0234 245.97 29.7504 239.429 27.8784ZM267.704 50.4394C273.454 49.9454 277.819 51.3154 283.413 51.4924C289.608 51.6874 295.638 50.7394 298.491 48.7854C298.534 48.7554 299.587 48.2124 298.913 48.0334C293.571 46.7524 286.571 46.6664 285.507 42.3174C279.567 41.0674 273.124 40.1784 267.076 39.0074C267.439 42.7054 267.23 46.8194 267.704 50.4394ZM287.81 43.3704C290.598 45.3804 295.997 46.3134 300.585 46.5294C296.642 45.0014 292.573 43.5604 287.601 42.7684C287.585 43.0304 287.647 43.2364 287.81 43.3704ZM268.12 65.1804C273.143 65.5264 277.786 67.7484 283.413 68.0374C289.334 68.3424 294.256 67.6374 297.866 65.6314C292.44 64.2904 282.896 63.9154 282.991 58.7134C277.747 57.7664 273.931 55.7944 267.702 55.5544C267.987 58.6594 268.055 61.9184 268.12 65.1804ZM288.229 62.0224C291.785 63.2134 297.107 64.3214 300.797 64.2774C296.149 62.1004 290.764 60.4504 284.669 59.3144C284.942 60.8394 286.35 61.3924 288.229 62.0224ZM228.956 72.7014C226.234 76.4364 227.661 82.4454 228.328 87.4414C229.546 96.6044 231.41 108.124 239.009 111.658C246.464 110.904 256.252 109.877 263.723 111.357C270.603 107.461 273.033 95.9754 274.406 87.2924C274.953 83.8234 275.559 80.3254 275.244 77.2134C274.801 72.8374 271.769 70.4774 267.496 68.9414C260.676 72.3124 242.463 72.4054 235.449 68.6394C233.448 69.7244 230.346 70.7944 228.956 72.7014ZM281.316 81.7254C282.104 81.6844 281.019 81.3414 280.897 81.2744C279.752 80.6484 278.12 80.0694 277.127 79.6194C277.127 79.9714 277.127 80.3224 277.127 80.6734C278.61 80.9634 279.954 81.3504 281.316 81.7254ZM276.712 85.1854C278.735 84.8854 280.207 84.1864 280.898 82.9284C279.288 82.8824 278.444 82.2844 276.92 82.1774C277.081 83.3444 276.598 84.0514 276.712 85.1854ZM234.82 110.905C227.944 104.429 227.133 93.4314 225.815 83.0794C225.803 82.9884 225.78 82.9014 225.606 82.9284C219.541 85.2494 212.123 85.2664 207.8 88.1934C205.205 89.9524 203.818 92.7644 202.564 95.4134C200.826 99.0924 199.254 103.211 197.119 106.243C200.418 109.583 205.574 111.244 213.035 111.658C220.15 112.053 228.492 111.797 235.867 112.109C236.024 111.555 235.197 111.261 234.82 110.905ZM196.49 96.3154C195.554 96.9504 192.415 99.1004 192.301 99.9254C192.187 100.739 193.375 101.665 193.976 102.482C194.629 103.372 194.996 104.296 195.862 104.889C198.016 101.372 199.669 96.6934 201.306 93.3074C200.116 94.1814 198.222 95.1384 196.49 96.3154ZM265.61 120.682C267.274 120.308 274.639 119.02 274.196 117.374C273.873 116.172 268.503 116.013 266.026 116.17C260.279 116.533 248.78 118.827 255.137 122.637C258.693 122.083 261.857 121.525 265.61 120.682Z" fill="#BF8294"/>
<path fill-rule="evenodd" clip-rule="evenodd" d="M196.7 37.2046C194.745 37.9136 193.444 35.9346 191.674 35.5496C191.677 35.1496 191.595 34.6906 191.881 34.4966C192.023 34.4966 192.163 34.4966 192.302 34.4966C193.907 35.0786 196.364 35.5766 196.7 37.2046Z" fill="#BF8294"/>
<path fill-rule="evenodd" clip-rule="evenodd" d="M193.559 38.5573C193.354 38.5613 193.396 38.7423 193.35 38.8583C191.894 39.1333 190.828 38.2793 189.996 37.6543C190.531 36.0733 193.396 37.5653 193.559 38.5573Z" fill="#BF8294"/>
<path fill-rule="evenodd" clip-rule="evenodd" d="M230.421 38.5576C231.137 39.3366 231.508 40.6896 231.884 41.8676C232.241 42.9746 233.117 44.3916 231.884 45.1776C230.329 44.9766 230.538 43.4136 230.212 42.3186C229.878 41.1966 229.176 40.1296 229.165 39.0086C229.108 38.7666 229.361 38.7506 229.374 38.5576C229.719 38.5576 230.07 38.5576 230.421 38.5576Z" fill="#BF8294"/>
<path fill-rule="evenodd" clip-rule="evenodd" d="M227.699 39.7606C228.367 40.4586 228.515 41.9046 228.327 42.7686C228.084 42.7446 227.955 42.8026 227.905 42.9186C226.291 43.0396 225.496 39.6196 227.699 39.7606Z" fill="#BF8294"/>
<path fill-rule="evenodd" clip-rule="evenodd" d="M254.088 68.1886C253.652 69.5226 250.923 69.1516 249.268 69.0906C245.993 68.9706 241.692 68.5406 240.263 67.4366C240.375 67.2146 240.574 67.0586 240.682 66.8346C240.854 66.8066 240.891 66.6846 241.104 66.6846C243.683 67.4896 247.507 67.5586 251.576 67.7376C252.397 67.7736 253.569 67.4826 254.088 68.1886Z" fill="#BF8294"/>
<path fill-rule="evenodd" clip-rule="evenodd" d="M260.584 67.5875C260.736 68.7935 257.078 69.0085 256.393 68.1895C256.607 67.1975 259.874 66.8305 260.584 67.5875Z" fill="#BF8294"/>
<path fill-rule="evenodd" clip-rule="evenodd" d="M259.952 74.8074C259.093 75.8634 256.721 75.4084 255.135 75.4084C251.107 75.4084 246.514 75.4174 242.779 75.7104C241.473 75.8124 240.237 76.3964 239.216 75.7104C238.944 74.5134 241.087 74.6214 242.357 74.5064C246.332 74.1494 250.732 74.0554 255.554 74.0554C257.246 74.0544 259.544 73.6994 259.952 74.8074Z" fill="#BF8294"/>
<path fill-rule="evenodd" clip-rule="evenodd" d="M267.076 74.9574C267.324 76.1314 264.365 75.7634 263.723 75.4084C263.178 74.1054 266.793 74.2774 267.076 74.9574Z" fill="#BF8294"/>
<path fill-rule="evenodd" clip-rule="evenodd" d="M270.426 92.7056C271.114 93.6906 270.469 94.8146 270.215 95.8636C269.499 98.8466 268.651 102.777 266.654 105.039C263.909 108.157 257.888 109.486 250.738 109.251C249.897 109.224 248.26 109.597 248.012 108.649C248.375 107.304 251.859 107.984 253.67 107.897C258.204 107.679 262.861 106.732 264.979 104.287C267.56 101.31 267.478 97.2086 269.17 93.1566C269.159 92.8996 269.325 92.7666 269.589 92.7046C269.866 92.7056 270.146 92.7056 270.426 92.7056Z" fill="#BF8294"/>
<path fill-rule="evenodd" clip-rule="evenodd" d="M234.61 100.377C235.743 100.5 236.141 101.837 235.657 102.633C233.813 103.015 233.068 100.572 234.61 100.377Z" fill="#BF8294"/>
<path fill-rule="evenodd" clip-rule="evenodd" d="M245.081 108.65C241.089 108.79 237.117 107.112 236.286 104.438C236.414 104.23 237.091 104.416 237.124 104.138C237.293 104.218 237.464 104.294 237.752 104.287C238.769 105.696 240.301 106.462 242.572 107.145C243.47 107.418 245.388 107.44 245.081 108.65Z" fill="#BF8294"/>
<path fill-rule="evenodd" clip-rule="evenodd" d="M309.821 134.492C310.511 135.425 309.372 136.327 308.771 136.9C305.592 139.927 302.393 143.136 297.04 145.022C295.313 145.631 292.623 146.235 291.598 147.128C290.802 147.819 290.483 148.85 289.92 149.685C289.355 150.525 288.851 151.376 288.245 152.242C289.423 152.026 290.239 151.039 291.806 150.588C294.074 149.935 297.335 150.027 300.186 149.685C302.394 149.42 304.341 148.416 306.047 149.234C305.887 150.793 303.735 151.496 302.489 152.392C301.268 153.267 299.97 154.388 298.091 154.949C294.518 156.014 290.302 155.523 287.199 156.754C284.352 157.885 284.094 159.945 282.174 161.718C284.597 160.93 288.469 161.31 292.226 161.116C294.329 161.008 296.39 160.266 297.884 160.965C298.172 162.122 296.277 162.634 295.159 163.222C293.159 164.273 291.435 165.7 288.248 165.779C285.409 165.848 283.235 164.297 280.709 164.425C277.807 164.571 274.88 168.007 273.167 169.238C270.567 171.106 268.59 172.679 266.465 174.503C270.317 173.821 273.134 174.235 276.517 174.051C282.892 173.704 287.29 170.549 293.273 170.442C296.997 170.375 301.247 171.479 305.213 171.796C306.477 171.897 308.026 171.615 308.982 172.398C308.719 173.776 305.935 174.391 304.374 174.955C301.538 175.979 298.836 177.27 294.322 176.91C292.372 176.754 290.647 176.075 288.874 175.556C287.219 175.071 285.205 174.341 283.427 174.353C281.54 174.365 279.652 175.262 277.357 175.405C275.348 175.531 273.451 175.312 271.282 175.405C276.087 176.593 278.321 179.71 281.755 182.174C282.522 182.727 283.795 183.145 283.427 184.13C281.455 184.862 279.521 183.729 277.563 183.378C275.463 182.999 273.103 182.998 271.28 182.324C267.714 181.005 265.822 178.055 262.691 176.759C259.669 178.102 256.131 178.463 252.639 179.466C247.947 180.814 244.018 183.078 239.864 185.181C238.029 186.109 235.363 187.985 234 186.083C234.348 185.051 235.915 184.493 237.141 183.977C240.674 182.489 244.555 180.544 248.447 179.164C254.397 177.057 260.324 176.853 264.787 173.749C266.188 172.773 267.423 171.372 269.184 169.988C270.612 168.866 273.16 167.688 273.373 166.228C273.579 164.826 271.703 163.222 270.86 161.715C269.601 159.459 268.913 156.796 270.021 154.496C271.091 152.278 273.231 150.064 275.047 148.028C275.54 147.479 276.108 146.354 277.353 146.675C278.762 147.161 277.527 148.327 277.353 148.78C276.863 150.06 276.249 151.26 276.512 153.142C276.952 156.272 280.306 158.913 278.606 162.617C278.569 162.74 278.397 162.767 278.397 162.918C279.282 162.188 280.209 161.414 280.914 160.511C283.647 156.998 286.108 152.255 288.661 148.327C289.323 147.313 290.231 146.412 290.756 145.469C291.735 143.712 291.754 142.197 293.059 140.807C295.776 137.913 301.569 137.014 306.465 135.241C307.421 134.9 308.502 134.057 309.821 134.492ZM293.062 144.871C298.752 143.389 302.502 140.519 305.839 137.35C305.817 137.166 305.777 136.994 305.417 137.049C300.207 138.77 293.333 140.102 293.062 144.871ZM292.223 151.94C290.066 152.629 288.971 154.122 287.407 155.098C290.523 154.255 294.989 154.502 297.88 153.444C298.664 153.157 299.289 152.504 299.974 152.09C300.51 151.765 302.177 151.266 301.44 150.887C298.207 151.521 294.843 151.104 292.223 151.94ZM271.279 156.905C271.23 159.861 274.007 162.678 275.257 164.876C279.34 160.879 274.966 156.067 274.21 151.64C273.161 153.422 271.315 154.759 271.279 156.905ZM282.59 163.222C286.103 164.633 291.285 164.581 293.062 162.469C289.306 162.529 284.978 162.179 282.59 163.222ZM286.36 173.449C289.172 173.868 291.701 175.36 294.949 175.555C298.761 175.784 301.745 174.166 304.579 173.149C298.988 172.376 290.779 170.87 286.36 173.449ZM278.818 182.173C276.381 179.512 272.543 175.75 265.415 176.458C268.861 179.096 272.071 181.906 278.818 182.173Z" fill="#BF8294"/>
<path d="M98.4999 52.2904C97.9833 52.2904 97.5377 52.0154 97.4667 51.6404C94.9448 38.2134 83.9928 36.2064 83.5305 36.1274C83.0904 36.0534 82.766 35.7854 82.7284 35.4634C82.688 35.1414 82.9373 34.8364 83.3508 34.7084C97.262 30.3844 97.4555 19.7044 97.4583 19.2514C97.4583 18.8374 97.9262 18.5024 98.5027 18.5024C99.0625 18.5024 99.5192 18.8184 99.5443 19.2164C99.5443 19.2174 99.5443 19.2204 99.5443 19.2214C99.5443 19.2224 99.5443 19.2224 99.5443 19.2234C99.5471 19.2264 99.5471 19.2294 99.5471 19.2324C99.5471 19.2334 99.5471 19.2344 99.5471 19.2344C99.5471 19.2364 99.5471 19.2374 99.5471 19.2374C99.5471 19.2384 99.5471 19.2414 99.5471 19.2424C99.5471 19.2444 99.5471 19.2474 99.5471 19.2494C99.5471 19.2504 99.5471 19.2514 99.5471 19.2524C99.5471 31.0644 113.007 34.5444 113.578 34.6874C113.978 34.7864 114.255 35.0494 114.28 35.3524C114.305 35.6554 114.074 35.9394 113.692 36.0714C99.7072 40.9154 99.5471 51.4344 99.5471 51.5394C99.5471 51.9344 99.1196 52.2614 98.5709 52.2884C98.55 52.2904 98.525 52.2904 98.4999 52.2904ZM86.3684 35.3184C89.6672 36.4904 95.5366 39.5914 98.4038 47.3074C99.7476 43.7434 103.003 38.7184 110.879 35.4464C107.472 34.1704 100.732 30.8934 98.3328 24.3224C96.8581 27.8714 93.5941 32.4694 86.3684 35.3184Z" fill="#BF8294"/>
<path d="M63.2583 60.6793C62.7417 60.6793 62.2961 60.4053 62.2251 60.0303C60.7811 52.3373 54.583 51.1723 54.3185 51.1263C53.8812 51.0503 53.5595 50.7823 53.5192 50.4603C53.4816 50.1393 53.7308 49.8353 54.1416 49.7073C62.0886 47.2373 62.214 41.1203 62.2167 40.8603C62.2167 40.4463 62.6846 40.1123 63.2611 40.1123C63.8209 40.1123 64.2804 40.4313 64.3027 40.8313C64.3055 40.8383 64.3055 40.8453 64.3055 40.8523C64.3055 40.8543 64.3055 40.8563 64.3055 40.8563C64.3027 40.8583 64.3027 40.8593 64.3055 40.8613C64.3055 47.6063 71.9782 49.6043 72.3041 49.6863C72.7037 49.7863 72.9808 50.0493 73.0059 50.3523C73.0282 50.6553 72.7998 50.9383 72.4182 51.0703C64.4364 53.8353 64.3055 59.6833 64.3055 59.9303C64.3027 60.3243 63.8752 60.6513 63.3294 60.6763C63.3043 60.6793 63.2834 60.6793 63.2583 60.6793ZM56.9642 50.3443C58.8622 51.1533 61.5581 52.8603 63.1901 56.3433C64.1426 54.4263 66.0155 52.1223 69.7182 50.4363C67.7269 49.5973 64.6898 47.8913 63.1636 44.8923C62.1819 46.7443 60.3564 48.8543 56.9642 50.3443Z" fill="#BF8294"/>
<path d="M336.3 155.131C335.781 155.131 335.338 154.857 335.267 154.482C333.82 146.789 327.622 145.624 327.358 145.578C326.922 145.502 326.599 145.234 326.561 144.913C326.524 144.592 326.77 144.288 327.184 144.16C335.131 141.69 335.256 135.573 335.256 135.313C335.259 134.899 335.727 134.564 336.3 134.564C336.863 134.564 337.323 134.883 337.345 135.283C337.345 135.29 337.345 135.297 337.345 135.304C337.345 135.305 337.345 135.307 337.345 135.308C337.345 135.309 337.345 135.311 337.345 135.313C337.345 142.058 345.02 144.056 345.346 144.138C345.743 144.238 346.02 144.501 346.045 144.804C346.07 145.107 345.839 145.39 345.458 145.522C337.476 148.287 337.348 154.135 337.345 154.382C337.342 154.776 336.915 155.103 336.369 155.128C336.346 155.131 336.321 155.131 336.3 155.131ZM330.004 144.796C331.904 145.605 334.6 147.312 336.232 150.794C337.182 148.877 339.058 146.573 342.757 144.887C340.766 144.048 337.732 142.342 336.203 139.343C335.22 141.196 333.396 143.306 330.004 144.796Z" fill="#BF8294"/>
</svg>
